# xmcd
#
# Track frame offsets: 
#        150
#        19253
#        39455
#        53464
#        69654
#        84945
#        100461
#        119583
#        142088
#        161988
#        181011
#        201111
#        219230
#        235471
#
# Disc length: 3333 seconds
#
# Revision: 0
# Processed by: cddbd v1.5.2PL0 Copyright (c) Steve Scherf et al.
# Submitted via: ExactAudioCopy v0.99pb5
#
DISCID=c50d030e
DTITLE=Willy Clay Band - Blue
DYEAR=2009
DGENRE=Americana
TTITLE0=Most Of All
TTITLE1=Mighty Good Time
TTITLE2=Jailbird
TTITLE3=True Lies
TTITLE4=The Miner
TTITLE5=Stay Down
TTITLE6=Solid Ground
TTITLE7=A Little More
TTITLE8=Shading The Sun
TTITLE9=Playing In A Band
TTITLE10=Modern World
TTITLE11=Far Away
TTITLE12=Under A Spell
TTITLE13=Never Never
EXTD=
EXTT0=
EXTT1=
EXTT2=
EXTT3=
EXTT4=
EXTT5=
EXTT6=
EXTT7=
EXTT8=
EXTT9=
EXTT10=
EXTT11=
EXTT12=
EXTT13=
PLAYORDER=
